<svg xmlns="http://www.w3.org/2000/svg" width="256" height="256" viewBox="0 0 256 256">
  <defs>
    <linearGradient id="background" x1="32" y1="22" x2="224" y2="234" gradientUnits="userSpaceOnUse">
      <stop offset="0" stop-color="#0F172A"/>
      <stop offset="0.55" stop-color="#1D4ED8"/>
      <stop offset="1" stop-color="#0E7490"/>
    </linearGradient>
    <linearGradient id="header" x1="52" y1="58" x2="204" y2="92" gradientUnits="userSpaceOnUse">
      <stop offset="0" stop-color="#DBEAFE"/>
      <stop offset="1" stop-color="#CFFAFE"/>
    </linearGradient>
    <clipPath id="panelClip">
      <rect x="40" y="44" width="176" height="168" rx="22"/>
    </clipPath>
  </defs>

  <rect x="18" y="18" width="220" height="220" rx="46" fill="url(#background)"/>
  <path d="M46 219c45 16 103 11 164-14" fill="none" stroke="#67E8F9" stroke-width="18" stroke-linecap="round" opacity="0.18"/>

  <rect x="40" y="44" width="176" height="168" rx="22" fill="#F8FAFC"/>
  <rect x="40" y="44" width="176" height="168" rx="22" fill="none" stroke="#BAE6FD" stroke-width="3"/>

  <g clip-path="url(#panelClip)">
    <rect x="40" y="44" width="176" height="46" fill="url(#header)"/>
    <rect x="40" y="90" width="176" height="122" fill="#FFFFFF"/>

    <path d="M40 90h176M40 122h176M40 154h176M40 186h176" stroke="#D9E3EF" stroke-width="3"/>
    <path d="M88 44v168M132 44v168M176 44v168" stroke="#D9E3EF" stroke-width="3"/>

    <rect x="104" y="103" width="54" height="8" rx="4" fill="#94A3B8" opacity="0.64"/>
    <rect x="190" y="103" width="18" height="8" rx="4" fill="#22C55E"/>
    <rect x="104" y="135" width="38" height="8" rx="4" fill="#94A3B8" opacity="0.64"/>
    <rect x="190" y="135" width="18" height="8" rx="4" fill="#06B6D4"/>
    <rect x="104" y="167" width="46" height="8" rx="4" fill="#94A3B8" opacity="0.64"/>
    <rect x="190" y="167" width="18" height="8" rx="4" fill="#2563EB"/>

    <path d="M66 106v64M66 138h18M66 170h18M58 106h26" fill="none" stroke="#475569" stroke-width="5" stroke-linecap="round"/>
    <circle cx="84" cy="106" r="9" fill="#2563EB"/>
    <circle cx="84" cy="138" r="9" fill="#06B6D4"/>
    <circle cx="84" cy="170" r="9" fill="#22C55E"/>

    <path d="M178 62l10 10 10-10" fill="none" stroke="#1D4ED8" stroke-width="6" stroke-linecap="round" stroke-linejoin="round"/>
    <path d="M143 72h-39" stroke="#1E293B" stroke-width="8" stroke-linecap="round"/>
    <path d="M78 72h-20" stroke="#1D4ED8" stroke-width="8" stroke-linecap="round"/>
  </g>

  <path d="M54 221h126" stroke="#FFFFFF" stroke-width="7" stroke-linecap="round" opacity="0.22"/>
</svg>
